<?xml version="1.0" standalone="no"?>
<!DOCTYPE svg PUBLIC "-//W3C//DTD SVG 20010904//EN"
 "http://www.w3.org/TR/2001/REC-SVG-20010904/DTD/svg10.dtd">
<svg version="1.0" xmlns="http://www.w3.org/2000/svg"
 width="250.000000pt" height="250.000000pt" viewBox="0 0 250.000000 250.000000"
 preserveAspectRatio="xMidYMid meet">
<metadata>
Created by potrace 1.14, written by Peter Selinger 2001-2017
</metadata>
<g transform="translate(0.000000,250.000000) scale(0.100000,-0.100000)"
fill="#000000" stroke="none">
<path d="M1234 2435 c-86 -60 -269 -128 -403 -149 -80 -13 -255 -14 -333 -2
-36 6 -38 5 -39 -21 -4 -194 0 -1144 5 -1188 21 -175 101 -334 233 -462 84
-82 160 -125 405 -227 l157 -66 157 66 c211 88 240 101 308 147 179 120 313
337 332 540 5 48 9 1087 5 1195 -1 21 -5 23 -33 17 -18 -3 -80 -7 -138 -10
-208 -7 -400 42 -593 153 -45 26 -38 25 -63 7z"/>
<path d="M2215 749 c-37 -57 -69 -106 -71 -108 -1 -2 -15 6 -30 18 -15 11 -31
21 -35 21 -5 0 -39 -30 -76 -66 -76 -74 -238 -188 -283 -199 -3 -1 -27 -11
-53 -23 -46 -21 -127 -47 -178 -58 -89 -18 -124 -22 -233 -23 -181 -2 -311 27
-481 108 -112 54 -238 144 -308 221 l-46 50 -35 -30 -34 -31 -73 106 c-39 59
-75 103 -79 98 -4 -4 -17 -38 -30 -75 -12 -37 -26 -71 -31 -74 -6 -3 -35 4
-65 16 -30 13 -58 20 -61 16 -4 -3 3 -20 15 -36 12 -16 22 -33 22 -38 0 -4 12
-24 26 -43 14 -19 30 -43 35 -54 5 -11 38 -66 73 -123 l63 -102 36 41 36 41
83 -65 c198 -153 406 -246 638 -283 55 -9 350 -10 405 -2 109 17 243 55 325
91 25 11 47 21 50 22 58 15 323 193 338 228 7 14 23 6 57 -29 31 -31 55 -38
55 -15 0 4 50 91 110 191 61 101 110 187 110 192 0 4 -30 -4 -66 -18 -37 -14
-69 -22 -73 -19 -3 4 -20 41 -37 82 l-32 76 -67 -104z"/>
</g>
</svg>
